<svg id="Capa_1" enable-background="new 0 0 512 512" height="512" viewBox="0 0 512 512" width="512" xmlns="http://www.w3.org/2000/svg"><g><path d="m97.075 197.772c-4.863-2.622-10.811-2.3-15.396.747l-75 45c-4.174 2.784-6.679 7.471-6.679 12.481s2.505 9.697 6.68 12.48l75 45c4.651 3.1 10.585 3.327 15.396.747 4.877-2.607 7.924-7.69 7.924-13.227v-15h61c8.291 0 15-6.709 15-15v-30c0-8.291-6.709-15-15-15h-61v-15c0-5.537-3.047-10.62-7.925-13.228z"/><path d="m313.48 81.68-45-75.417c-5.566-8.35-19.395-8.35-24.961 0l-45 75.417c-3.062 4.6-3.354 10.518-.747 15.396s7.691 7.924 13.228 7.924h15v61c0 8.291 6.709 15 15 15h30c8.291 0 15-6.709 15-15v-61h15c5.537 0 10.62-3.047 13.228-7.925s2.314-10.796-.748-15.395z"/><path d="m430.32 198.52c-4.6-3.047-10.518-3.369-15.396-.747-4.877 2.607-7.924 7.69-7.924 13.227v15h-61c-8.291 0-15 6.709-15 15v30c0 8.291 6.709 15 15 15h61v15c0 5.537 3.047 10.62 7.925 13.228 4.81 2.58 10.745 2.353 15.396-.747l75-45c4.175-2.783 6.68-7.471 6.68-12.48s-2.505-9.697-6.68-12.48z"/><path d="m197.772 414.925c-2.607 4.878-2.314 10.796.747 15.396l45 75c2.783 4.175 7.471 6.68 12.48 6.68s9.697-2.505 12.48-6.68l45-75c3.062-4.6 3.354-10.518.747-15.396s-7.689-7.925-13.226-7.925h-15v-61c0-8.291-6.709-15-15-15h-30c-8.291 0-15 6.709-15 15v61h-15c-5.537 0-10.62 3.047-13.228 7.925z"/><path d="m286 301c8.291 0 15-6.709 15-15v-60c0-8.291-6.709-15-15-15h-60c-8.291 0-15 6.709-15 15v60c0 8.291 6.709 15 15 15z"/></g></svg>